PathFileType	4	(X/Y/Z)	E:\Qualisys_Data\Carbon_Farble_Plate\Data\Amateur_Runner\S2\T3\S2T3V22_c3d.trc
DataRate	CameraRate	NumFrames	NumMarkers	Units	OrigDataRate	OrigDataStartFrame	OrigNumFrames
200.000000	200.000000	4	39	mm	200.000000	197	316
Frame#	Time	LSHO			RSHO			LICST			RICST			LASIS			LHEEL			RASIS			LTROC			RTROC			SACR			LTH1			LSK4			LTH2			LTH3			RHM5			LSK2			LTH4			RTH1			LTOE			RTH2			RTH3			RTH4			LLEP			RLEP			LSK1			LSK3			RSK1			LHM5			RSK2			LFT1			RSK3			RSK4			LLME			RLME			RTOE			RHEEL			RFT1			RFT2			LFT2			
		X1	Y1	Z1	X2	Y2	Z2	X3	Y3	Z3	X4	Y4	Z4	X5	Y5	Z5	X6	Y6	Z6	X7	Y7	Z7	X8	Y8	Z8	X9	Y9	Z9	X10	Y10	Z10	X11	Y11	Z11	X12	Y12	Z12	X13	Y13	Z13	X14	Y14	Z14	X15	Y15	Z15	X16	Y16	Z16	X17	Y17	Z17	X18	Y18	Z18	X19	Y19	Z19	X20	Y20	Z20	X21	Y21	Z21	X22	Y22	Z22	X23	Y23	Z23	X24	Y24	Z24	X25	Y25	Z25	X26	Y26	Z26	X27	Y27	Z27	X28	Y28	Z28	X29	Y29	Z29	X30	Y30	Z30	X31	Y31	Z31	X32	Y32	Z32	X33	Y33	Z33	X34	Y34	Z34	X35	Y35	Z35	X36	Y36	Z36	X37	Y37	Z37	X38	Y38	Z38	X39	Y39	Z39	

198	0.985	536.396240234375	1444.341064453125	-492.3649291992188	590.3917846679688	1409.181640625	-182.3151550292969	478.5254821777344	978.3571166992188	-490.0960083007812	512.567626953125	959.787109375	-188.1770324707031	541.2406616210938	931.468505859375	-476.2098999023438	297.0811157226562	395.4220581054688	-391.3199768066406	569.5993041992188	913.9757080078124	-216.2090454101562	422.6114501953125	852.8779296875	-491.2733764648438	417.6697692871094	863.7698364257812	-185.2419738769531	406.1534423828125	1013.021179199219	-328.477294921875	657.68994140625	685.3618774414062	-505.1681823730469	476.1738891601562	463.6853332519531	-479.7510070800781	585.0526123046875	641.4293823242188	-510.0403137207031	709.2872924804688	597.4140625	-489.3621215820312	283.3197937011719	63.05704116821289	-224.2683258056641	565.9794311523438	504.6903381347656	-495.7852478027344	634.576904296875	555.0109252929688	-488.1341857910156	515.9666748046875	588.2298583984375	-195.5405120849609	411.2544860839844	173.5072326660156	-424.6752624511719	439.9317321777344	600.5684204101562	-188.7832794189453	496.9951171875	490.6461181640625	-221.3957977294922	419.454833984375	507.3847961425781	-208.8621063232422	682.0921630859375	533.1144409179688	-494.5421752929688	441.0527648925781	465.5521545410156	-208.9469451904297	600.0365600585938	433.2187805175781	-486.753173828125	509.5802917480469	391.7798461914062	-475.1554565429688	406.9190368652344	343.3561401367188	-214.1057586669922	357.0596008300781	219.1582641601562	-475.918701171875	345.023681640625	391.2471008300781	-193.1082916259766	282.9037475585938	372.9248352050781	-358.8879089355469	343.8264770507812	263.3363952636719	-223.3362121582031	284.177978515625	312.8768920898438	-203.9533538818359	335.5524597167969	349.7272644042969	-447.2096862792969	197.2999267578125	144.3361206054688	-237.2028350830078	338.8253173828125	53.50168991088867	-289.9748229980469	113.4732360839844	144.1867370605469	-287.5589294433594	115.0524444580078	115.1816940307617	-316.8377685546875	106.4709320068359	122.7869262695312	-264.6514587402344	270.4715576171875	377.1356201171875	-411.0923461914062
199	0.99	553.9932861328125	1448.867553710938	-492.8287353515625	611.6450805664062	1414.21875	-184.6987915039062	499.3677062988281	983.7233276367188	-490.6362915039062	535.0772094726562	963.4364624023438	-189.5264739990234	561.8218383789062	936.9729614257812	-476.94677734375	327.6383361816406	381.8730163574219	-391.858642578125	591.1165771484375	917.3817138671876	-217.6509857177734	443.8500671386719	858.6473999023438	-493.6394653320312	438.4248046875	868.8831176757812	-186.3331451416016	428.8281555175781	1017.041137695312	-327.5171508789062	680.0361938476562	693.52978515625	-505.5313415527344	503.2221984863281	459.1317138671875	-478.7230834960938	608.6185302734375	648.836181640625	-510.8389587402344	733.2437133789062	606.0908813476562	-488.7657165527344	285.6008911132812	63.72854995727539	-223.2317199707031	590.731689453125	505.8985900878906	-495.5413818359375	659.0012817382812	562.7733764648438	-488.4921569824219	530.5337524414062	591.316650390625	-196.7865905761719	455.2604675292969	167.4662780761719	-425.3952026367188	454.7320251464844	606.4986572265625	-188.9424133300781	508.3998413085938	494.6256408691406	-222.1009521484375	431.3049926757812	513.620849609375	-208.3651428222656	706.4527587890625	540.8047485351562	-494.4482116699219	451.0086669921875	471.6138305664062	-208.2985229492188	628.846435546875	435.6761779785156	-486.9422302246094	540.21044921875	390.0814208984375	-475.1912841796875	415.0987854003906	349.5222473144531	-212.6700744628906	397.8202819824219	210.1630249023438	-477.0300598144531	353.6359558105469	398.1536865234375	-192.3062286376953	314.3004455566406	358.8283996582031	-359.7369689941406	351.7145080566406	270.2765502929688	-221.2799682617188	292.1155395507812	320.1622009277344	-203.0569305419922	368.6273193359375	339.0254211425781	-447.9553833007812	203.8123779296875	151.7475128173828	-235.6978912353516	341.0607604980469	53.58249664306641	-288.7502746582031	120.1524963378906	153.1349487304688	-287.2232360839844	121.4170074462891	124.3715438842773	-316.5693969726562	113.2924346923828	131.6793060302734	-263.8876953125	301.5641174316406	362.2776489257812	-411.8469543457031
200	0.995	571.3592529296875	1453.465698242188	-493.5891418457031	632.9284057617188	1419.20654296875	-186.7053070068359	520.0887451171875	989.0985107421876	-491.2423706054688	557.8423461914062	966.97412109375	-190.7098083496094	582.4678955078125	942.0865478515624	-477.6148681640625	357.7067260742188	368.5501403808594	-392.9106750488281	613.0502319335938	920.4127197265624	-219.2392120361328	465.7761535644531	864.3914184570312	-496.8694458007812	459.1568298339844	873.9806518554688	-187.33642578125	450.53271484375	1021.499755859375	-327.4462280273438	703.2149658203125	700.7633666992188	-505.4780578613281	530.4900512695312	454.9071350097656	-478.7266845703125	632.10009765625	655.2288208007812	-511.3883972167969	757.1019287109375	614.3510131835938	-488.4015808105469	288.65380859375	64.84336853027344	-222.1843414306641	615.3933715820312	506.8885192871094	-495.22216796875	683.704833984375	569.896240234375	-489.5060424804688	545.5374145507812	595.1934814453125	-197.7766571044922	497.9526977539062	162.2071990966797	-427.1217651367188	470.1721801757812	612.5152587890625	-188.5101165771484	520.2880859375	498.9336853027344	-222.5227508544922	443.8177185058594	520.441650390625	-207.6334381103516	730.033203125	547.3696899414062	-493.486083984375	462.0870056152344	477.2896728515625	-207.8204498291016	656.588134765625	439.3733520507812	-488.7210998535156	570.937255859375	388.0493469238281	-475.7649536132812	424.0201416015625	356.7335815429688	-211.175048828125	439.0426025390625	201.4789276123047	-478.3646545410156	362.7156372070312	405.1490783691406	-191.65673828125	347.5985107421875	343.4571838378906	-361.3671875	360.12255859375	276.892578125	-219.2536315917969	300.6072082519531	327.6175842285156	-202.3361053466797	401.9984436035156	327.9248352050781	-448.4095153808594	210.6520843505859	157.9930114746094	-234.8427276611328	343.5339965820312	53.04695510864258	-287.4653015136719	128.1269836425781	162.5557556152344	-287.4501342773438	128.6672515869141	134.3017578125	-315.3828125	120.7256774902344	141.7925567626953	-263.4336547851562	333.5198974609375	347.2237854003906	-412.2641296386719
201	1.0	588.9939575195312	1458.048706054688	-494.2708129882812	653.966796875	1424.352783203125	-189.2408905029297	540.6817016601562	994.345458984375	-492.0524597167969	580.3287353515625	970.4641723632812	-192.4050445556641	602.627197265625	947.0072631835938	-478.6294555664062	388.8824462890625	354.99365234375	-393.5702819824219	634.7648315429688	923.9882202148438	-220.8958435058594	487.5606384277344	870.16064453125	-498.9927062988281	480.6819152832031	878.5955810546875	-188.15087890625	471.7754821777344	1025.618408203125	-327.6412658691406	726.0314331054688	707.4967041015625	-505.8583068847656	557.5945434570312	450.6222839355469	-479.1501770019531	655.4808349609375	661.417724609375	-512.2322998046875	780.6578369140625	621.0791015625	-488.0905151367188	292.2208251953125	66.0262222290039	-220.6983642578125	639.554931640625	506.865966796875	-494.6014709472656	707.3851928710938	576.4212646484375	-490.9230041503906	560.9771728515625	599.40185546875	-198.1310729980469	541.1725463867188	157.2992553710938	-428.286865234375	485.7414855957031	618.288330078125	-188.5271911621094	532.6984252929688	503.6416320800781	-222.6720581054688	457.0205383300781	527.099609375	-207.0440826416016	753.540771484375	553.5183715820312	-493.34765625	473.4252014160156	483.6749877929688	-207.2424163818359	684.040771484375	441.5940246582031	-489.392822265625	601.263916015625	386.032958984375	-476.5880737304688	433.5335083007812	363.55517578125	-209.5639190673828	480.2590026855469	192.9122314453125	-479.7584533691406	372.1571655273438	412.4814453125	-190.3380126953125	381.3504943847656	329.1320190429688	-361.2784118652344	369.3308715820312	283.9887390136719	-217.5048675537109	310.2260437011719	335.2062072753906	-201.3773651123047	435.957763671875	317.2295227050781	-449.4728088378906	218.9838409423828	164.6224365234375	-233.5151977539062	346.6300964355469	52.66414260864258	-286.667724609375	137.8312683105469	173.8269805908203	-285.58544921875	137.2267608642578	145.2767028808594	-314.9931945800781	129.1312255859375	152.5055694580078	-263.3346252441406	366.2147521972656	332.3959350585938	-413.5339660644531
